<?xml version="1.0" encoding="UTF-8" standalone="no"?>
<svg
   xmlns:dc="http://purl.org/dc/elements/1.1/"
   xmlns:cc="http://creativecommons.org/ns#"
   xmlns:rdf="http://www.w3.org/1999/02/22-rdf-syntax-ns#"
   xmlns:svg="http://www.w3.org/2000/svg"
   xmlns="http://www.w3.org/2000/svg"
   xmlns:xlink="http://www.w3.org/1999/xlink"
   xmlns:sodipodi="http://sodipodi.sourceforge.net/DTD/sodipodi-0.dtd"
   xmlns:inkscape="http://www.inkscape.org/namespaces/inkscape"
   width="712.19324mm"
   height="86.144562mm"
   version="1.1"
   viewBox="0 0 712.19526 86.144551"
   id="svg1879"
   sodipodi:docname="grass.svg"
   inkscape:version="0.92.2 5c3e80d, 2017-08-06">
  <metadata
     id="metadata1885">
    <rdf:RDF>
      <cc:Work
         rdf:about="">
        <dc:format>image/svg+xml</dc:format>
        <dc:type
           rdf:resource="http://purl.org/dc/dcmitype/StillImage" />
        <dc:title />
      </cc:Work>
    </rdf:RDF>
  </metadata>
  <defs
     id="defs1883" />
  <sodipodi:namedview
     pagecolor="#ffffff"
     bordercolor="#666666"
     borderopacity="1"
     objecttolerance="10"
     gridtolerance="10"
     guidetolerance="10"
     inkscape:pageopacity="0"
     inkscape:pageshadow="2"
     inkscape:window-width="1280"
     inkscape:window-height="693"
     id="namedview1881"
     showgrid="false"
     inkscape:zoom="0.20557738"
     inkscape:cx="1537.5939"
     inkscape:cy="-0.29446045"
     inkscape:window-x="2"
     inkscape:window-y="0"
     inkscape:window-maximized="0"
     inkscape:current-layer="svg1879" />
  <path
     inkscape:tile-y0="-61.995644"
     inkscape:tile-x0="-2.7275387"
     sodipodi:nodetypes="ccc"
     inkscape:connector-curvature="0"
     id="use2555"
     d="M 3.6376058,82.850565 C -4.3901273,57.065331 2.393711,31.280096 13.648344,5.4948618 6.88672,31.583452 4.8952665,57.672043 24.569149,83.760633"
     style="fill:#131519;fill-opacity:1;stroke:none;stroke-width:0.26458409px;stroke-linecap:butt;stroke-linejoin:miter;stroke-opacity:1" />
  <path
     inkscape:tile-y0="-61.995644"
     inkscape:tile-x0="-2.7275387"
     sodipodi:nodetypes="ccc"
     inkscape:connector-curvature="0"
     id="use2557"
     d="m 28.378628,83.253614 c 5.644885,-14.707021 0.874673,-29.414042 -7.039281,-44.121063 4.754592,14.880045 6.154928,29.76009 -7.679215,44.640135"
     style="fill:#131519;fill-opacity:1;stroke:none;stroke-width:0.1675605px;stroke-linecap:butt;stroke-linejoin:miter;stroke-opacity:1" />
  <path
     inkscape:tile-y0="-61.995644"
     inkscape:tile-x0="-2.7275387"
     sodipodi:nodetypes="ccc"
     inkscape:connector-curvature="0"
     id="use2559"
     d="m 44.452644,83.019766 c 8.027733,-20.99122 1.243895,-41.98244 -10.010738,-62.97366 6.761624,21.238176 8.753077,42.476351 -10.920805,63.714527"
     style="fill:#131519;fill-opacity:1;stroke:none;stroke-width:0.23872451px;stroke-linecap:butt;stroke-linejoin:miter;stroke-opacity:1" />
  <path
     inkscape:tile-y0="-61.995644"
     inkscape:tile-x0="-2.7275387"
     sodipodi:nodetypes="ccc"
     inkscape:connector-curvature="0"
     id="use2561"
     d="M 48.363001,83.114941 C 42.69598,64.820355 47.484898,46.525768 55.429885,28.231181 50.656649,46.740998 49.250822,65.250816 63.139213,83.760633"
     style="fill:#131519;fill-opacity:1;stroke:none;stroke-width:0.18724939px;stroke-linecap:butt;stroke-linejoin:miter;stroke-opacity:1" />
  <path
     inkscape:tile-y0="-61.995644"
     inkscape:tile-x0="-2.7275387"
     sodipodi:nodetypes="ccc"
     inkscape:connector-curvature="0"
     id="use2563"
     d="m 70.176656,82.850565 c 5.94619,-25.785234 0.92136,-51.570469 -7.41502,-77.3557032 5.00838,26.0885902 6.48346,52.1771812 -8.089111,78.2657712"
     style="fill:#131519;fill-opacity:1;stroke:none;stroke-width:0.22771248px;stroke-linecap:butt;stroke-linejoin:miter;stroke-opacity:1" />
  <path
     inkscape:tile-y0="-61.995644"
     inkscape:tile-x0="-2.7275387"
     sodipodi:nodetypes="ccc"
     inkscape:connector-curvature="0"
     id="use2565"
     d="m 70.729598,83.315867 c -5.658462,-12.601695 -0.876779,-25.203389 7.0562,-37.805083 -4.76602,12.749949 -6.169721,25.499899 7.697682,38.249849"
     style="fill:#131519;fill-opacity:1;stroke:none;stroke-width:0.15529062px;stroke-linecap:butt;stroke-linejoin:miter;stroke-opacity:1" />
  <path
     inkscape:tile-y0="-61.995644"
     inkscape:tile-x0="-2.7275387"
     sodipodi:nodetypes="ccc"
     inkscape:connector-curvature="0"
     id="use2567"
     d="M 80.600393,83.686608 C 74.060647,55.803992 79.587058,27.921376 88.755569,0.03876081 83.24726,28.249407 81.624938,56.460054 97.652126,84.670701"
     style="fill:#131519;fill-opacity:1;stroke:none;stroke-width:0.24832976px;stroke-linecap:butt;stroke-linejoin:miter;stroke-opacity:1" />
  <path
     inkscape:tile-y0="-61.995644"
     inkscape:tile-x0="-2.7275387"
     sodipodi:nodetypes="ccc"
     inkscape:connector-curvature="0"
     id="use2569"
     d="M 104.69179,82.850565 C 110.638,57.065331 105.61317,31.280096 97.276776,5.4948618 102.28515,31.583452 103.76023,57.672043 89.187656,83.760633"
     style="fill:#131519;fill-opacity:1;stroke:none;stroke-width:0.2277125px;stroke-linecap:butt;stroke-linejoin:miter;stroke-opacity:1" />
  <path
     inkscape:tile-y0="-61.995644"
     inkscape:tile-x0="-2.7275387"
     sodipodi:nodetypes="ccc"
     inkscape:connector-curvature="0"
     id="use2571"
     d="m 114.73436,82.316107 c 4.46795,-15.598179 0.69231,-31.196358 -5.57161,-46.794537 3.76328,15.781687 4.87164,31.563374 -6.07812,47.345062"
     style="fill:#131519;fill-opacity:1;stroke:none;stroke-width:0.15352266px;stroke-linecap:butt;stroke-linejoin:miter;stroke-opacity:1" />
  <path
     inkscape:tile-y0="-61.995644"
     inkscape:tile-x0="-2.7275387"
     sodipodi:nodetypes="ccc"
     inkscape:connector-curvature="0"
     id="use2573"
     d="m 117.69209,82.316107 c -4.458,-25.785234 -0.69077,-51.570469 5.55919,-77.3557032 -3.75489,26.0885902 -4.86079,52.1771812 6.06458,78.2657712"
     style="fill:#131519;fill-opacity:1;stroke:none;stroke-width:0.19716816px;stroke-linecap:butt;stroke-linejoin:miter;stroke-opacity:1" />
  <use
     x="0"
     y="0"
     xlink:href="#use2555"
     id="use2635"
     transform="translate(125.67825,0.37560981)"
     width="100%"
     height="100%"
     style="fill:#131519;fill-opacity:1;stroke:none" />
  <use
     x="0"
     y="0"
     xlink:href="#use2557"
     id="use2637"
     transform="translate(125.67825,0.37560981)"
     width="100%"
     height="100%"
     style="fill:#131519;fill-opacity:1;stroke:none" />
  <use
     x="0"
     y="0"
     xlink:href="#use2559"
     id="use2639"
     transform="translate(125.67825,0.37560981)"
     width="100%"
     height="100%"
     style="fill:#131519;fill-opacity:1;stroke:none" />
  <use
     x="0"
     y="0"
     xlink:href="#use2561"
     id="use2641"
     transform="translate(125.67825,0.37560981)"
     width="100%"
     height="100%"
     style="fill:#131519;fill-opacity:1;stroke:none" />
  <use
     x="0"
     y="0"
     xlink:href="#use2563"
     id="use2643"
     transform="translate(125.67825,0.37560981)"
     width="100%"
     height="100%"
     style="fill:#131519;fill-opacity:1;stroke:none" />
  <use
     x="0"
     y="0"
     xlink:href="#use2565"
     id="use2645"
     transform="translate(125.67825,0.37560981)"
     width="100%"
     height="100%"
     style="fill:#131519;fill-opacity:1;stroke:none" />
  <use
     x="0"
     y="0"
     xlink:href="#use2567"
     id="use2647"
     transform="translate(125.67825,0.37560981)"
     width="100%"
     height="100%"
     style="fill:#131519;fill-opacity:1;stroke:none" />
  <use
     x="0"
     y="0"
     xlink:href="#use2569"
     id="use2649"
     transform="translate(125.67825,0.37560981)"
     width="100%"
     height="100%"
     style="fill:#131519;fill-opacity:1;stroke:none" />
  <use
     x="0"
     y="0"
     xlink:href="#use2571"
     id="use2651"
     transform="translate(125.67825,0.37560981)"
     width="100%"
     height="100%"
     style="fill:#131519;fill-opacity:1;stroke:none" />
  <use
     x="0"
     y="0"
     xlink:href="#use2573"
     id="use2653"
     transform="translate(125.67825,0.37560981)"
     width="100%"
     height="100%"
     style="fill:#131519;fill-opacity:1;stroke:none" />
  <use
     x="0"
     y="0"
     xlink:href="#use2555"
     id="use2655"
     transform="translate(251.3565,0.75121981)"
     width="100%"
     height="100%"
     style="fill:#131519;fill-opacity:1;stroke:none" />
  <use
     x="0"
     y="0"
     xlink:href="#use2557"
     id="use2657"
     transform="translate(251.3565,0.75121981)"
     width="100%"
     height="100%"
     style="fill:#131519;fill-opacity:1;stroke:none" />
  <use
     x="0"
     y="0"
     xlink:href="#use2559"
     id="use2659"
     transform="translate(251.3565,0.75121981)"
     width="100%"
     height="100%"
     style="fill:#131519;fill-opacity:1;stroke:none" />
  <use
     x="0"
     y="0"
     xlink:href="#use2561"
     id="use2661"
     transform="translate(251.3565,0.75121981)"
     width="100%"
     height="100%"
     style="fill:#131519;fill-opacity:1;stroke:none" />
  <use
     x="0"
     y="0"
     xlink:href="#use2563"
     id="use2663"
     transform="translate(251.3565,0.75121981)"
     width="100%"
     height="100%"
     style="fill:#131519;fill-opacity:1;stroke:none" />
  <use
     x="0"
     y="0"
     xlink:href="#use2565"
     id="use2665"
     transform="translate(251.3565,0.75121981)"
     width="100%"
     height="100%"
     style="fill:#131519;fill-opacity:1;stroke:none" />
  <use
     x="0"
     y="0"
     xlink:href="#use2567"
     id="use2667"
     transform="translate(251.3565,0.75121981)"
     width="100%"
     height="100%"
     style="fill:#131519;fill-opacity:1;stroke:none" />
  <use
     x="0"
     y="0"
     xlink:href="#use2569"
     id="use2669"
     transform="translate(251.3565,0.75121981)"
     width="100%"
     height="100%"
     style="fill:#131519;fill-opacity:1;stroke:none" />
  <use
     x="0"
     y="0"
     xlink:href="#use2571"
     id="use2671"
     transform="translate(251.3565,0.75121981)"
     width="100%"
     height="100%"
     style="fill:#131519;fill-opacity:1;stroke:none" />
  <use
     x="0"
     y="0"
     xlink:href="#use2573"
     id="use2673"
     transform="translate(251.3565,0.75121981)"
     width="100%"
     height="100%"
     style="fill:#131519;fill-opacity:1;stroke:none" />
  <use
     x="0"
     y="0"
     xlink:href="#use2635"
     id="use2675"
     transform="translate(251.3565,0.75121981)"
     width="100%"
     height="100%"
     style="fill:#131519;fill-opacity:1;stroke:none" />
  <use
     x="0"
     y="0"
     xlink:href="#use2637"
     id="use2677"
     transform="translate(251.3565,0.75121981)"
     width="100%"
     height="100%"
     style="fill:#131519;fill-opacity:1;stroke:none" />
  <use
     x="0"
     y="0"
     xlink:href="#use2639"
     id="use2679"
     transform="translate(251.3565,0.75121981)"
     width="100%"
     height="100%"
     style="fill:#131519;fill-opacity:1;stroke:none" />
  <use
     x="0"
     y="0"
     xlink:href="#use2641"
     id="use2681"
     transform="translate(251.3565,0.75121981)"
     width="100%"
     height="100%"
     style="fill:#131519;fill-opacity:1;stroke:none" />
  <use
     x="0"
     y="0"
     xlink:href="#use2643"
     id="use2683"
     transform="translate(251.3565,0.75121981)"
     width="100%"
     height="100%"
     style="fill:#131519;fill-opacity:1;stroke:none" />
  <use
     x="0"
     y="0"
     xlink:href="#use2645"
     id="use2685"
     transform="translate(251.3565,0.75121981)"
     width="100%"
     height="100%"
     style="fill:#131519;fill-opacity:1;stroke:none" />
  <use
     x="0"
     y="0"
     xlink:href="#use2647"
     id="use2687"
     transform="translate(251.3565,0.75121981)"
     width="100%"
     height="100%"
     style="fill:#131519;fill-opacity:1;stroke:none" />
  <use
     x="0"
     y="0"
     xlink:href="#use2649"
     id="use2689"
     transform="translate(251.3565,0.75121981)"
     width="100%"
     height="100%"
     style="fill:#131519;fill-opacity:1;stroke:none" />
  <use
     x="0"
     y="0"
     xlink:href="#use2651"
     id="use2691"
     transform="translate(251.3565,0.75121981)"
     width="100%"
     height="100%"
     style="fill:#131519;fill-opacity:1;stroke:none" />
  <use
     x="0"
     y="0"
     xlink:href="#use2653"
     id="use2693"
     transform="translate(251.3565,0.75121981)"
     width="100%"
     height="100%"
     style="fill:#131519;fill-opacity:1;stroke:none" />
  <use
     x="0"
     y="0"
     xlink:href="#use2565"
     id="use2695"
     transform="translate(435.62101,1.0371378)"
     width="100%"
     height="100%"
     style="fill:#131519;fill-opacity:1;stroke:none" />
  <use
     x="0"
     y="0"
     xlink:href="#use2567"
     id="use2697"
     transform="translate(435.62101,1.0371378)"
     width="100%"
     height="100%"
     style="fill:#131519;fill-opacity:1;stroke:none" />
  <use
     x="0"
     y="0"
     xlink:href="#use2569"
     id="use2699"
     transform="translate(435.62101,1.0371378)"
     width="100%"
     height="100%"
     style="fill:#131519;fill-opacity:1;stroke:none" />
  <use
     x="0"
     y="0"
     xlink:href="#use2571"
     id="use2701"
     transform="translate(435.62101,1.0371378)"
     width="100%"
     height="100%"
     style="fill:#131519;fill-opacity:1;stroke:none" />
  <use
     x="0"
     y="0"
     xlink:href="#use2573"
     id="use2703"
     transform="translate(435.62101,1.0371378)"
     width="100%"
     height="100%"
     style="fill:#131519;fill-opacity:1;stroke:none" />
  <use
     x="0"
     y="0"
     xlink:href="#use2635"
     id="use2705"
     transform="translate(435.62101,1.0371378)"
     width="100%"
     height="100%"
     style="fill:#131519;fill-opacity:1;stroke:none" />
  <use
     x="0"
     y="0"
     xlink:href="#use2637"
     id="use2707"
     transform="translate(435.62101,1.0371378)"
     width="100%"
     height="100%"
     style="fill:#131519;fill-opacity:1;stroke:none" />
  <use
     x="0"
     y="0"
     xlink:href="#use2639"
     id="use2709"
     transform="translate(435.62101,1.0371378)"
     width="100%"
     height="100%"
     style="fill:#131519;fill-opacity:1;stroke:none" />
  <use
     x="0"
     y="0"
     xlink:href="#use2641"
     id="use2711"
     transform="translate(435.62101,1.0371378)"
     width="100%"
     height="100%"
     style="fill:#131519;fill-opacity:1;stroke:none" />
  <use
     x="0"
     y="0"
     xlink:href="#use2643"
     id="use2713"
     transform="translate(435.62101,1.0371378)"
     width="100%"
     height="100%"
     style="fill:#131519;fill-opacity:1;stroke:none" />
  <use
     x="0"
     y="0"
     xlink:href="#use2645"
     id="use2715"
     transform="translate(435.62101,1.0371378)"
     width="100%"
     height="100%"
     style="fill:#131519;fill-opacity:1;stroke:none" />
  <use
     x="0"
     y="0"
     xlink:href="#use2647"
     id="use2717"
     transform="translate(435.62101,1.0371378)"
     width="100%"
     height="100%"
     style="fill:#131519;fill-opacity:1;stroke:none" />
  <use
     x="0"
     y="0"
     xlink:href="#use2649"
     id="use2719"
     transform="translate(435.62101,1.0371378)"
     width="100%"
     height="100%"
     style="fill:#131519;fill-opacity:1;stroke:none" />
  <use
     x="0"
     y="0"
     xlink:href="#use2651"
     id="use2721"
     transform="translate(435.62101,1.0371378)"
     width="100%"
     height="100%"
     style="fill:#131519;fill-opacity:1;stroke:none" />
  <use
     x="0"
     y="0"
     xlink:href="#use2665"
     id="use2723"
     transform="translate(344.07673,-0.70897319)"
     width="100%"
     height="100%"
     style="fill:#131519;fill-opacity:1;stroke:none" />
  <use
     x="0"
     y="0"
     xlink:href="#use2667"
     id="use2725"
     transform="translate(344.07673,-0.70897319)"
     width="100%"
     height="100%"
     style="fill:#131519;fill-opacity:1;stroke:none" />
  <use
     x="0"
     y="0"
     xlink:href="#use2669"
     id="use2727"
     transform="translate(344.07673,-0.70897319)"
     width="100%"
     height="100%"
     style="fill:#131519;fill-opacity:1;stroke:none" />
  <use
     x="0"
     y="0"
     xlink:href="#use2671"
     id="use2729"
     transform="translate(344.07673,-0.70897319)"
     width="100%"
     height="100%"
     style="fill:#131519;fill-opacity:1;stroke:none" />
  <rect
     style="fill:#131519;fill-opacity:1;stroke:none;stroke-width:3.47501087;stroke-miterlimit:4;stroke-dasharray:none;stroke-opacity:1"
     id="rect2737"
     width="706.52997"
     height="13.440576"
     x="3.6376059"
     y="72.062119" />
</svg>
